<?xml version="1.0" encoding="utf-8"?>
<!-- Generator: Adobe Illustrator 26.0.3, SVG Export Plug-In . SVG Version: 6.00 Build 0)  -->
<svg version="1.1" id="レイヤー_1" xmlns="http://www.w3.org/2000/svg" xmlns:xlink="http://www.w3.org/1999/xlink" x="0px"
	 y="0px" viewBox="0 0 672.5 434.2" style="enable-background:new 0 0 672.5 434.2;" xml:space="preserve">
<style type="text/css">
	.st0{clip-path:url(#SVGID_00000006680575518214582820000014469090910752337298_);}
	.st1{fill:#FFFFFF;}
</style>
<g>
	<defs>
		<path id="SVGID_1_" d="M289.9,52c-1.9,0.2-3.2,1.6-4.6,2.6c-0.6,0.5-1.2,1.2-1.7,1.9c-0.5,0.7-1,1.5-1.6,2.2c-0.7,0.9-1,2-0.9,3.1
			c0.3,3.6,0.2,7.3-0.3,10.9c-0.1,1-0.1,1.9,0,2.9c0.3,3,0.7,5.9,1,8.9c0,0.8,0,1.7-0.2,2.5c-0.2,1-0.2,2.1-0.1,3.1
			c0.4,1.9-0.8,3.8-2.7,4.1c-0.1,0-0.1,0-0.2,0c-0.3,0.1-0.7,0.2-1,0.2c-0.8,0.1-1.6,0.6-2,1.3c-0.5,0.6-1,1.2-1.5,1.7
			c-0.9,1-1.5,2.2-2.8,2.9c-0.1,0.1-0.2,0.4-0.2,0.6c-0.4,2.3-0.4,4.7,0.2,7c0.2,0.9,0.4,1.8,0.6,2.6c0.6,2.9,1.6,5.8,2.2,8.7
			c0.3,1.4,0.5,2.8,0.7,4.1c0.3,2.7-1.3,4.3-4,4.1c-1.3-0.1-2.6-0.2-4-0.4c-0.7-0.1-1.4,0-2,0.3c-0.8,0.3-0.9,0.6-0.9,1.6
			c0,1.5-0.1,3-0.3,4.5c-0.1,0.7-0.4,1.4-1,1.8c-0.9,0.9-1.9,1.6-3,2.3c-1.7,0.8-3.1,2.2-3.8,4c-0.1,0.3-0.3,0.6-0.5,0.9
			c-1,1.4-2.2,2.7-3.2,4.1c-1.2,1.8-2.7,3.4-3.3,5.5c-0.4,1.7-0.5,3.4-0.2,5.2c0.1,1.1,0.4,2.2-0.9,2.9c-0.1,0.7-0.4,1.3-0.9,1.8
			c-0.5,0.6-0.9,1.2-1.8,1.3c-0.2,0.1-0.4,0.2-0.5,0.3c-1.1,1.1-2.7,1.7-4.3,1.7c-1.3,0.2-2.7,0.2-4,0.1c-0.6-0.1-1.2-0.2-1.9-0.3
			c-2.2-0.4-4.5-0.7-6.8-1.1c-0.5-0.1-1.1-0.3-1.6-0.5c-1.1-0.3-2.1-0.7-3.2-1c-0.6-0.2-1.3-0.1-1.8,0.3c-0.7,0.6-1.4,1.2-2,1.9
			c-1.4,1.4-2.6,3.1-3.3,5c-0.2,0.5-0.2,1,0.2,1.4c1.5,1.6,2.3,3.6,3.5,5.4c0.7,1.4,1.6,2.7,2.6,3.9c1.8,0.3,3.6,1,5.2,2
			c0.7,0.4,1.5,0.7,2.2,1.1c1.2,0.6,2.3,1.4,3.3,2.2c2.6,2.2,5,4.7,6.9,7.5c1.6,2.1,3.1,4.3,4.5,6.6c0.8,1.5,1.7,3.1,2.6,4.5
			c0.8,1.2,1.7,2.4,2.5,3.6c2.6,4,4.6,8.5,5.9,13.1c0.3,1,0.4,2.1,0.7,3.1c0.6,1.9,1.2,3.7,2,5.5c1.3,3.2,2.2,6.5,2.7,9.9
			c0.3,1.7,0.5,3.5,0.6,5.2c0.1,1,0.4,1.9,1,2.7c3,4.1,4.7,8.9,6.1,13.7c0.2,0.9,0.4,1.8,0.4,2.7c0.1,1,0.6,2,1.4,2.7
			c3.5,2.9,6.3,6.6,8.1,10.8c0.6,1.4,1.1,2.8,1.8,4.2c0.8,1.7,1.7,3.4,2.6,5c0.3,0.4,0.6,0.8,1,1.1c1,0.7,1.8,1.7,2.3,2.8
			c0.7,1.2,1.7,2.3,2.9,3c1.7,1,3.4,2,5.1,2.9c2.8,1.4,5,3.7,6.4,6.5c0.4,0.8,0.7,1.7,0.8,2.6c0.2,0.8,0.8,1.5,1.6,1.8
			c1.7,0.7,3.4,1.3,5.1,1.7c1.8,0.5,3.5,1.4,5,2.6c1.9,1.3,4,2.3,6.1,3.1c0.8,0.3,1.6,0.4,2.5,0.3c1.7-0.1,3.3-0.4,5-0.5
			c2.8-0.3,5.6-0.2,8.4,0.1c1.4,0.3,2.7,0.7,4,1.2c1.5,0.5,2.9,1,4.4,1.4c1.7,0.5,3.5,0.4,5.1-0.2c0.7-0.3,1.5-0.4,2.2-0.2
			c0.5,0.2,1.1,0.2,1.6,0c1-0.4,2-0.6,3.1-0.5c0.3,0,0.7-0.1,1-0.2c0.3-0.1,0.7-0.2,1-0.3c3.1-0.3,6.1-0.8,9-1.5
			c3.2-0.7,6.3-1.6,9.6-2c2.6-0.3,5.2-1.1,7.8-1.5c2.3-0.3,4.5-0.8,6.8-1.4c1.4-0.4,2.9-0.7,4.3-0.8c1.7-0.3,3.5,0.3,4.8,1.4
			c1.2,1,2.5,1.7,3.8,2.6c0.6,0.5,1.4,0.7,2.2,0.6c0.7,0,1.4,0,2.1,0.1c1.1,0.2,2.2,0.6,3.1,1.3c1,0.8,2.2,1.5,3.3,2.3
			c0.3,0.2,0.7,0.4,1.1,0.6c2.2,1,4.3,1.9,6.5,2.9c1.1,0.5,2.4,0.9,3.6,1c3,0.3,5.9,1,8.7,2.3c1.5,0.7,3.1,1.2,4.7,1.6
			c1.2,0.3,2.5,0.5,3.7,0.5c1.1,0.1,2,0.6,2.7,1.4c0.9,1.1,1.5,2.4,1.8,3.7c0.3,1.2,0.8,2.4,1.5,3.5c0.5,0.8,0.9,1.7,1.3,2.6
			c1.3,4.1,4.3,6.4,8,8.1l1.7,0.8c1.1,0.5,1.7,1.6,1.5,2.7c0,0.1,0,0.1,0,0.2c0.1,1.7-0.6,2.6-2.5,2.6c-0.4,0-0.8,0.1-1.3,0.1
			c0.1,0.8,0.4,1.6,0.9,2.2c0.5,0.6,0.7,1.4,0.7,2.1c3.2,0.4,6.4,0.4,9.7,0.1c0.2-0.5,0.4-1,0.5-1.5c0.4-1.9,1.4-3.7,1.6-5.6
			c0.2-0.7,0.5-1.5,0.8-2.1c0.2-0.7,0.5-1.3,0.7-2c0.9-3.1,1.8-6.2,2.8-9.2s2-5.8,3.1-8.6c0.7-1.7,1.2-3.6,1.5-5.4
			c0.4-2,1-3.9,2-5.7c1.1-1.9,1.5-4.1,1.2-6.2c-0.2-1.9-0.1-3.7,0.4-5.6c1-3.9,2-7.8,3.1-11.7c0.8-2.9,1.8-5.7,2.7-8.6
			s1.8-5.9,2.7-8.8c1.8-5.8,3.7-11.6,5.5-17.4c0.3-1.1,0.7-2.1,1-3.2c0.8-2.7,1.6-5.3,2.5-8c1-3.2,1.9-6.4,2.9-9.6
			c0.5-1.5,0.9-3.1,1.3-4.6c0.6-2.3,1.2-4.6,1.8-6.9c0.6-2.5,1.6-4.9,3-7.1c0.6-0.8,1.3-1.4,2.1-2c0.7-0.6,1.7-0.7,2.6-0.3
			c1.5,0.5,3,1.2,4.4,2c0.8,0.5,1.6,0.8,2.5,1.1c2.1,0.8,4.2,1.9,6.2,3.1c0.4,0.2,0.7,0.4,1.1,0.5c3.2,1.2,6.3,2.6,9.4,4.1
			c2.1,1,4.1,2,6.2,3s2.8,2.7,3,4.7c0.1,1.5-0.1,3.1-0.5,4.6c-0.4,1.6-0.8,3.3-1.3,4.9c-1.5,5.1-3.1,10.3-4.7,15.4
			c-1.4,4.5-2.8,8.9-4.1,13.4c-1.2,3.9-2.6,7.7-3.3,11.7c-0.3,1.1-0.6,2.1-1,3.2c-0.7,2.5-1.5,5-2.2,7.4l-3.6,12
			c-1.5,5-2.9,9.9-4.5,14.8c-2.5,8-4.8,16.1-7.4,24c-0.9,2.7-1.8,5.3-2.7,7.9c-0.7,1.9-1.2,3.9-2,5.7c-1.1,2.5-3,4.7-5.3,6.2
			c-0.9,0.6-2,1-3.1,1.2c-0.4,0-0.8,0.1-1.2,0.3c-1.1,0.8-2.5,0.8-3.7,1.3c-1.4,0.5-2.8,1.2-4.2,1.9c-2.4,1.3-4.9,2.4-7.4,3.4
			c-2.7,1-5.4,2-8,3.1c-2.4,1-4.8,1.8-7.3,2.3c-3.2,0.6-6.4,1.3-9.6,2.2c-2,0.6-4.1,0.8-6.2,0.7c-1.5,0-3,0-4.6,0
			c-3.5,0.1-7-0.1-10.5-0.1c-1,0-2.1,0.1-3.1,0.1c-3.8-0.2-7.7-0.4-11.5-0.5c-1.8-0.1-3.5-0.1-5.2,0c-5.7,0.3-11.3,0.1-16.9,0.4
			c-5,0.2-9.9,0-14.9,0c-3.2,0-6.4,0-9.6-0.1c-2.5-0.1-5,0-7.5-0.1c-2.3-0.1-4.6-0.3-6.9-0.4c-1.4-0.1-2.8-0.1-4.2-0.1
			c-4.6-0.1-9.2-0.1-13.8-0.6s-9.1-0.6-13.6-0.9c-1.9-0.1-3.7-0.4-5.6-0.6c-1.2-0.1-2.5,0-3.7-0.1c-2-0.1-3.9-0.2-5.8-0.4
			c-1.5-0.1-3.1-0.2-4.6-0.5c-1.9-0.3-3.8-1-5.4-2.1c-0.8-0.5-1.3-1.4-1.1-2.3c0.1-1.1,0.1-2.2,0-3.4c0-0.8,0.3-1.7,1-2.2
			c1.1-1,2.4-1.6,3.9-1.8c6.3-1,12.5-2.1,18.8-3.2c1.7-0.3,3.3-0.6,5-0.9c0.5-0.1,1.1-0.2,1.6-0.3c2.5,0.1,4.8-0.6,7.2-1
			s4.7-1,7-1.2c3.5-0.4,6.8-1.2,10.3-1.7c2.4-0.4,4.8-1.1,7.1-1.7c0.2,0,0.5-0.1,0.6-0.2c0.2-0.2,0.3-0.4,0.4-0.7
			c0-0.3-0.2-0.5-0.4-0.7c-0.4-0.2-0.8-0.2-1.2-0.2c-0.8,0-1.5,0-2.4,0c-0.2-0.3-0.4-0.5-0.6-0.8c-0.2-0.4-0.6-0.6-1-0.6
			c-1.5,0-3.1,0.1-4.6,0.2c-2.4,0.5-4.9,0.5-7.3,0.1c-1.1-0.4-2.1-0.6-3.2-0.8c-0.3-0.1-0.6-0.3-0.9-0.5c-0.7-0.5-1.5-0.8-2.3-0.7
			c-3.9,0-7.8,0-11.7,0.1c-0.8,0.1-1.6,0.2-2.5,0.5c-1.8,0.3-3.6,0.7-5.3,1.3c-1.6,0.6-3.4,0.9-5,1.4c-1.5,0.4-2.9,0.8-4.4,1.2
			c-1.9,0.5-3.5,1.6-5.6,1.6c-0.5,0-1,0.2-1.4,0.5c-0.9,0.6-1.9,1-2.9,1c-0.5,0.1-1,0.2-1.5,0.5c-1,0.5-2.2,0.9-3.3,1.2
			c-0.8,0.1-1.6,0.4-2.4,0.8c-0.7,0.4-1.5,0.7-2.3,0.9c-1.4,0.3-2.8,0.8-4.1,1.4c-1.2,0.5-2.5,0.9-3.8,1.1c-4.1,1-8.2,2.3-12.1,3.9
			c-1.5,0.5-3,1-4.6,1.3c-1.9,0.3-3.8,0.8-5.6,1.6c-0.6,0.3-1.2,0.5-1.8,0.6c-1.8,0.3-3.5,0.8-5.2,1.5c-0.8,0.3-1.6,0.6-2.4,0.8
			c-3.8,1-7.6,1.9-11.4,2.9c-1,0.2-2.1,0.4-3.1,0.5c-1.1,0.1-2.2,0.2-3.3,0.4c-3.2,0.4-6.6,0.4-9.8,1.3c-0.3,0.1-0.6,0.1-0.8,0.1
			c-1.5-0.1-3.1,0.1-4.5,0.5h-0.2c-3.9,0.2-7.7,1-11.7,0.4c-2.7-0.4-5.4-0.4-8.1-0.6c-0.8-0.1-1.7-0.2-2.5-0.2c-3-0.2-6-0.3-9-0.5
			c-1-0.1-2.1-0.2-3.1-0.4c-0.4-0.1-0.8-0.1-1.2-0.1c-2.9,0.3-5.7-0.2-8.6-0.2c-2,0-3.9-0.1-5.9-0.2c-2.6-0.2-5.1-0.4-7.7-0.7
			c-0.5,0-1-0.1-1.5-0.2c-0.8-0.1-1.5,0.2-2.1,0.7c-2.2,2-4.9,2.6-7.6,3.2c-0.3,0-0.7,0.1-1,0.1c-3.4,1.2-6.9,1.2-10.3,1.5
			c-0.2,0-0.4,0-0.6,0c-3.3,0.6-6.7,0.5-10,0.8c-3,0.2-6,0.5-9,0.7c-3.6,0.3-7.2,0.7-10.9,1c-2.8,0.2-5.6,0.3-8.3,0.7
			c-1.9,0.3-3.7,0.5-5.6,0.7c-3.9,0.5-7.9,1-11.8,1.4l-8.9,1.1c-1.1,0.1-2.2,0.2-3.3,0.4c-3.6,0.4-7.2,0.9-10.8,1.3
			c-3.3,0.4-6.7,0.7-10,1.3c-2.6,0.5-5.2,0.7-7.8,1.1c-1.7,0.3-3.4,0.4-5.2,0.6c-1.2,0.1-2.3,0.3-3.5,0.5c-3.3,0.4-6.6,0.8-10,1.2
			c-1.4,0.2-2.9,0.5-4.3,0.7c-0.6,0.1-1.1,0.1-1.7,0.1c-0.3,0-0.7-0.1-1-0.2c-0.2-0.9,0-1.9,0.4-2.7c1-2.9,1.8-5.9,2.4-8.9
			c0.4-1.7,0.7-3.4,1.2-5.1c0.4-1.5,0.6-3,0.4-4.6c0-1.5-0.1-3.1-0.3-4.6c-0.1-1-0.1-2,0-2.9c0-0.8,0.1-1.7,0.2-2.5
			c0-0.3,0-0.6,0.1-0.8c0.8-1.4,0.5-3.2,1.2-4.6c0.7-1.5,1.2-2.8,2-4.1c0.9-1.7,1.5-3.5,1.8-5.4c0.2-1,0.4-2.1,0.8-3
			c0.6-1.8,0.9-3.7,0.8-5.6c0.1-1.4,0.1-2.8,0.2-4.2c0.1-1.5,0.4-2.9,0.9-4.3c1-2.5,1.5-5.3,1.4-8c0-0.8,0-1.5,0.1-2.3
			c0.5-3.2,0.7-6.4,0.8-9.6c0.1-3,0.4-6,0.4-9c0-3.3,0.8-6.5,1.1-9.8c0.3-3.7,0.9-7.5,1.6-11.2c0.7-3.9,1.5-7.8,2.2-11.7
			c0.6-3.2,0.7-6.5,0.4-9.8c-0.2-2-0.2-4.1,0.1-6.1c0.3-1.5,0.1-3.1-0.5-4.5c-0.6-1.1-0.8-2.4-0.7-3.7c0-0.3,0-0.6,0.1-0.8
			c0.7-3.4,1.9-6.7,3.5-9.9c0.7-1.2,1.4-2.4,2.2-3.6c0.6-0.9,1.1-2,1.3-3c0.4-1.7,0.9-3.4,1.3-5.1c0.2-0.8,0.4-1.6,0.4-2.5
			c0.2-4.2,0.9-8.4,2-12.4c0.6-2,0.9-4.1,1.4-6.1c0.7-2.9,1.5-5.8,2.5-8.6c1.9-5.3,4.2-10.4,6.8-15.3c2.1-4.3,4.6-8.3,7.5-12.1
			c2-2.7,4.3-5.3,6.8-7.7c0.1-0.1,0.2-0.2,0.3-0.3c0.6-1.6,2.1-2.4,3.4-3.3c3.1-2,6.6-3.6,10.2-4.6c2.5-0.7,5-1.2,7.6-1.5
			c1.9-0.2,3.7-0.5,5.6-0.8c0.6-0.1,1.2-0.3,1.8-0.5c1.3-0.4,2.5-0.8,3.8-1.2c1.1-0.3,2.1-0.7,3.2-1c3-0.8,6.1-1.6,9.1-2.4
			c0.1,0,0.1,0,0.2,0c1.9-1.2,4.2-1.4,6.3-2.3c1.4-0.6,3-0.8,4.5-0.7c0.7,0,1.5,0.4,2.1-0.4c0.1-0.1,0.5-0.1,0.8-0.1
			s0.8,0.2,1.2,0.2c0.2-0.4,0.4-0.7,0.5-1c0.4-1.1,0.9-2.2,1.7-3.1c0.3-0.4,0.6-0.8,0.7-1.2c0.5-1.5,1.6-2.8,3.1-3.5
			c1.7-1,3.4-2.2,4.8-3.6c0.5-0.6,1.2-1,1.9-1.2c0.2,0,0.4-0.1,0.6-0.3c1-1.1,2.3-1.1,3.7-0.9c0.8,0.1,1.6,0.3,2.5,0.5l2.5,0.4
			c0.2-0.5,0.4-0.9,0.6-1.4c0.8-1,0.8-2.5,0-3.5c-0.5-0.8-0.7-1.7-0.6-2.6c0.1-1.7,0.4-3.5,0.6-5.2c0.1-0.8,0.4-1.5,0.5-2.2
			c0.2-1.1,0.5-2.2-0.1-3.4c-0.5-1-0.6-2.2-0.5-3.3c0.1-1.5,0.3-3.1,0.4-4.6c0.2-1,0.3-2.1,0.1-3.1c0.5-1.6,0-3.3,0.2-5
			c0.1-1.9-0.1-3.8-0.8-5.5c-0.5-1.7-0.8-3.5-0.7-5.3c0.1-1.9,0.3-3.9,0.6-5.8c0-1,0-1.9,0.1-2.9c0.1-1,0.1-1.9-0.1-2.9
			c0-0.6,0-1.2,0-1.9c0.1-0.3,0.1-0.6,0-0.8c-0.7-2.1,0.1-4.1,0.5-6.1c0.5-2.3,1.1-4.6,2-6.8c0.1-0.2,0.1-0.4,0.1-0.6
			c-0.4-1.1,0.2-1.9,0.6-2.7c0.4-0.8,0.7-1.7,0.9-2.6c0.1-0.5,0.2-0.9,0.5-1.4c0.7-1.4,1.4-2.7,2.2-4.1c0.9-1.3,1.4-2.9,1.5-4.5
			c0.2-0.9,0.6-1.7,1.2-2.4c0.7-1,1.5-2,2.3-3c0.2-0.4,0.5-0.7,0.9-0.9c2-1,3-2.9,4-4.7c1.5-2.6,3.2-5,5.2-7.3
			c1.3-1.4,2.8-2.7,4.2-4.1c1-1,2-2.1,3.1-3.1c2-1.9,4.2-3.4,6.7-4.7c2.8-1.6,5.8-2.8,8.9-3.6c2.2-0.6,4.5-0.8,6.8-0.7
			c0.6,0,1.2,0,1.9,0c1.7-0.1,3.5-0.3,5.2-0.4c0.3-0.1,0.7-0.1,1,0c0.9,0.3,1.8,0.4,2.8,0.2c1-0.1,2.1-0.1,3.1,0.1
			c1,0,2-0.1,2.9-0.1c0.6,0,1.1,0,1.7,0c1.5,0.1,3,0.3,4.6,0.4c2.2,0.1,4.4,1,6.5,1.4c0.5,0.1,1.1,0.2,1.6,0.3
			c2.8,0.2,5.5,0.8,8.2,1.7c0.9,0.3,1.7,0.5,2.6,0.8c0.5,0.1,0.9,0.3,1.4,0.5c1.6,1.2,3.7,1.5,5.3,2.8c0.2,0.1,0.4,0.2,0.6,0.3
			c2.3,0.4,4.3,1.6,6.4,2.5c1,0.4,2,1,2.8,1.8c1.7,1.8,4,2.7,6.1,4c1,0.6,2,1.1,2.9,1.6c1.3,0.8,2.6,1.6,3.9,2.5
			c1.9,1.2,3.7,2.5,5.4,3.9c2.1,1.9,3.8,4.2,5,6.7c0.5,1.4,0.7,2.8,0.7,4.3c0,0.5,0,1,0.1,1.4c0.2,0.9,0.1,1.8-0.2,2.7
			c-0.4,0.8-0.4,1.8-0.1,2.7c0.4,0.9,0.2,1.9-0.5,2.5C290.3,50.6,290,51.3,289.9,52z M353.3,101.7l0.1-0.2c-0.1,0-0.2,0-0.3,0
			s0,0.1,0,0.1L353.3,101.7z M369.6,91l-0.2,0.2l0.1,0.1l0.3-0.2L369.6,91z M353,300.3c0,0,0,0.1,0.1,0.1c0.1,0,0.2-0.1,0.3-0.1
			c0,0,0-0.1-0.1-0.1L353,300.3z M369.6,289.7l-0.2,0.2l0.1,0.1l0.3-0.2L369.6,289.7z M302.6,235.2v-0.1l-0.1,0.1L302.6,235.2z
			 M270,190.6c0.1,0,0.1,0,0.2,0c0,0,0-0.1,0-0.1c-0.1,0-0.1,0-0.2,0C270.1,190.5,270.1,190.6,270,190.6L270,190.6z M369.4,190.5
			c0,0,0,0.1,0,0.1c0.1,0,0.1,0,0.2,0v-0.2L369.4,190.5z M254,201.1l-0.3,0c0,0,0.1,0.1,0.1,0.1S253.9,201.1,254,201.1z M353.2,201
			l-0.1,0v0.2c0.1,0,0.1,0,0.2,0C353.2,201.2,353.2,201.1,353.2,201z M401.9,235.2L401.9,235.2l-0.1-0.1L401.9,235.2z M270.4,289.7
			h-0.2l0.2,0.1L270.4,289.7z M253.9,300.3l0.1,0.1c0,0,0.1-0.1,0-0.1c0,0-0.1-0.1-0.1-0.1C253.9,300.2,253.9,300.2,253.9,300.3z
			 M452.5,300.3l0.2-0.1c0,0-0.1-0.1-0.1-0.1s-0.1,0-0.1,0.1L452.5,300.3z M469,91l-0.2-0.1c0,0.1,0,0.1,0,0.1S468.9,91.1,469,91
			L469,91z M452.5,101.7l0.2-0.1l-0.1-0.1c-0.1,0-0.1,0-0.1,0.1L452.5,101.7z M401.9,36.5v-0.1h-0.1L401.9,36.5z M270.4,389.3H270
			c0,0,0.1,0.1,0.1,0.1S270.3,389.3,270.4,389.3z M369.6,389.3c0,0,0-0.1-0.1-0.1s-0.1,0-0.2,0l0.1,0.2L369.6,389.3z M568,389.1
			c0,0-0.1,0-0.1,0.1s0,0.1,0.1,0.1l0.2-0.1L568,389.1z M667.1,389.3c0.1,0,0.1,0,0.2,0c0,0,0-0.1,0-0.1c-0.1,0-0.1,0-0.2,0
			C667.1,389.2,667.2,389.2,667.1,389.3L667.1,389.3z M253.7,399.8c0.1,0,0.1,0,0.2,0s0-0.1,0-0.1c-0.1,0-0.1,0-0.2,0
			C253.8,399.7,253.7,399.7,253.7,399.8L253.7,399.8z M551.6,399.7c0,0,0,0.1,0,0.1c0.1,0,0.1,0,0.2,0v-0.2L551.6,399.7z M651,399.7
			l-0.2,0.1l0.2,0.1L651,399.7z M614.2,352c-0.2-0.1-0.4-0.2-0.6-0.2c-4.7-0.1-9.4-0.3-14.1-0.4c-5.6-0.1-11.2-0.2-16.8-0.4
			l-21.1-0.5c-3.8-0.1-7.6-0.2-11.3-0.2c-2.7,0-5.3,0-8-0.1c-5.7-0.1-11.5-0.3-17.2-0.4c-1,0-2,0-2.9,0c-2.1-0.1-4.2-0.2-6.3-0.2
			c-0.7,0.1-1.4,0.2-2.1,0.4c-0.6,2-1.3,4-1.9,6c-0.7,2.7-1.9,5.3-3.6,7.6c-1,1.3-2.3,2.3-3.8,2.8c-1.4,0.5-2.7,1-4.3,1.6
			c0.3,1.4-0.6,2.5-1.1,3.7c-0.4,0.8-1,1.5-1.7,2c-0.4,0.4-1,0.4-1.4,0.1c-0.1-0.1-0.2-0.2-0.2-0.3c-0.3-0.5-0.7-0.3-1,0.2
			c-0.1,0.2-0.2,0.4-0.4,0.7c-0.7-0.7-1.8-0.8-2.6-0.2c-1.1,0.6-2.3,1.1-3.5,1.6c-1.4,0.6-2.6,1.5-3.6,2.6c-1.3,1.6-3.4,2.5-5.5,2.4
			c-1.9-0.2-3.8-0.2-5.6,0c-1.5,0.1-2.9,0.6-4.2,1.3c-0.9,0.6-2,0.8-3,0.6c-1.5-0.4-3.1,0-4.4,1c-1.7,1.3-3.9,1.8-6,1.6
			c-1.3,0-2.6-0.1-4,0s-2.9,0.2-4.4,0.2c-3.3-0.2-6.7-0.2-10.1-0.1c-1.8,0.1-3.5-0.1-5.2-0.2l-3.4-0.1c-1,0.1-2.1,0.1-3.1-0.1
			c-1.3-0.4-2.7-0.5-4.1-0.5c-1,0-1.9-0.4-2.8,0.4c-0.1,0.1-0.3,0.1-0.4,0c-1.5-0.7-3.1-0.3-4.7-0.3c-1.1,0-2.2,0-3.3,0
			c-1.9,0.2-3.8,0.2-5.7,0c-0.7-0.1-1.4-0.1-2.1,0c-3.5,0.2-7,0.5-10.5,0.3c-1.6,0-3.2,0.1-4.8,0.1c-1,0-1.9,0.1-2.9,0
			c-0.6,0-1.2-0.1-1.9-0.1c-0.8,0-1.7,0-2.5,0c-1.1-0.2-2.2-0.2-3.3-0.2c-1.2,0.1-2.4,0.1-3.5-0.1c-1.9-0.2-3.7-0.3-5.6-0.3
			c-1.5,0-3.1-0.1-4.6-0.3c-0.6-0.1-1.2-0.1-1.9-0.1c-0.4,0.1-0.8,0.1-1.3,0c-2.5-0.5-5-0.2-7.5-0.3c-1.5-0.1-3,0.5-4.4,0.1
			c-1.2-0.3-2.5-0.5-3.7-0.7c-1.7-0.3-3.5-0.4-5.2-0.2c-0.3,0.1-0.7,0.1-1-0.1c-0.9-0.4-1.9-0.6-2.9-0.3c-1.2,0.1-2.4-0.4-3.5,0.2
			c-1.1-0.8-2.5,0.1-3.6-0.6c-3.8-0.7-7.7-0.6-11.5-1c-0.5,0-1,0-1.5,0.2c-0.7,0.2-1.4,0.1-2-0.2c-0.9-0.4-1.8-0.7-2.8-0.8
			c-2-0.2-3.8-1.1-5-2.7c-0.4-0.4-0.6-0.8-0.7-1.3c-0.2-1.4,0-2.8-0.1-4.3s0.1-2.4,1.3-3c0.6-0.4,1-1.2,0.8-1.9c-1-0.3-2-0.5-3-0.4
			c-4.3,0-8.5,0-12.8,0c-2.7,0-5.3,0.4-7.9,1.2c-1.9,0.5-3.7,1.3-5.6,1.9c-2.4,0.8-4.8,1.5-7.3,2.2c-3.2,1-6.5,1.9-9.7,2.8
			c-2.9,0.9-5.8,1.8-8.7,2.7c-2.2,0.7-4.5,1.1-6.7,1.8c-1.3,0.4-2.6,0.7-3.9,0.9c-1.3,0.2-2.6,0.3-4,0.5c-1.7,0.2-3.3,0.8-5,0.5
			c-0.5,0-1,0.1-1.5,0.2c-1.2,0.2-2.3,0.5-3.5,0.6c-3.5,0.3-6.9,1-10.5,1c-2.1,0-4.2,0-6.3-0.2c-3.1-0.2-6.3-0.5-9.4-0.7
			c-3.4-0.2-6.7-0.3-10.1-0.5c-0.3,0-0.6,0-0.8-0.1c-1.4-0.4-2.8-0.5-4.2-0.4c-0.8,0-1.7-0.1-2.5-0.2c-0.8-0.1-1.5-0.2-2.3-0.2
			c-2.3-0.1-4.6-0.3-6.9-0.3c-1.4,0-2.8-0.4-4.2,0c-0.2,0.1-0.5-0.1-0.8-0.2c-0.5-0.2-1.1-0.3-1.6-0.4c-1.3,0-2.7-0.2-3.9-0.6
			c-1.1-0.4-2.4,0.1-3,1.1c-0.8,1-1.9,1.8-3.1,2.1c-2.9,1.1-5.9,1.5-8.8,2.3c-0.9,0.2-1.8,0.3-2.7,0.3c-4.5,0.3-9,0.1-13.4,0.6
			c-1.2,0.1-2.4,0.3-3.5,0.4c-2.1,0.2-4.2,0.4-6.3,0.6c-3.1,0.3-6.2,0.8-9.4,1.1c-3.3,0.4-6.7,0.7-10,1.1c-4.5,0.5-9,1.3-13.6,1.7
			c-4.8,0.4-9.6,1.4-14.4,1.9c-3.2,0.3-6.4,0.8-9.6,1.3c-1.4,0.2-2.8,0.5-4.1,0.7c-1.1,0.1-2.2,0.2-3.3,0.3
			c-2.3,0.3-4.6,0.6-6.9,0.8s-4.6,0.3-6.8,0.7c-4.1,0.7-8.2,1.2-12.3,1.5c-3.9,0.4-7.8,0.9-11.6,1.6c-0.8,0.1-1.6,0.5-2.4,0.9
			c-1.5,0.9-3.1,1.5-4.8,1.7c-1.8,0.1-3.6,0.5-5.3,1.1c-0.4,0.2-0.8,0.3-1.2,0.3c-1,0-1.5,0.6-2,1.5c0.2,0.5,0.3,1,0.4,1.5
			c0.3,1,0.4,2.1,0.2,3.1C5.2,410,5,410.7,5,411.4c0.2,0.7,0.5,1.4,0.9,2c0.1,0.1,0.1,0.3,0.2,0.4c0.5,0.9,0.9,1.9,2.1,2
			c0.5,0.2,0.9,0.4,1.2,0.8c0.7,0.5,1.4,0.9,2.3,1c2.2,0.6,4.2,1.3,5.7,3.4c1.3,1.7,2.7,3.5,4.9,4c0.3,0.1,0.7,0.3,0.9,0.5
			c0.6,0.5,1.4,0.8,2.1,0.7c0.5,0,1,0.2,1.4,0.4c0.7,0.4,1.3,0.9,1.8,1.5c0.3,0.4,0.8,0.6,1.3,0.6c0.6,0,1.1,0.1,1.7,0.1
			c2.9,0,5.8,0,8.6,0h21.7c3.4,0,6.9,0,10.3,0c6.2,0,12.3,0,18.5,0c7.9,0,15.7,0,23.6,0h14.7c3.6,0,7.3,0,10.9,0
			c7.1,0,14.2,0,21.2,0.1c5.2,0,10.5,0,15.8,0c4.5,0,9,0.1,13.5,0.1c7.8,0,15.6,0,23.4,0h14.3c3.8,0,7.6,0,11.4,0
			c7.2,0,14.4,0,21.7,0.1c5.2,0,10.4,0,15.6,0c4.4,0,8.8,0,13.2,0.1h23.8H328c3.6,0,7.3,0,10.9,0l21.2,0.1c5.3,0,10.5,0,15.8,0
			c4.5,0,9,0.1,13.5,0.1c7.8,0,15.7,0,23.6,0h14.7h10.9l21.2,0.1c5.3,0,10.5,0,15.8,0c4.4,0,8.8,0,13.2,0.1h23.8h13.9
			c3.9,0,7.7,0,11.6,0l21.5,0.1c3.5,0,7,0,10.5,0l18.3,0.1c7.1,0,14.2,0,21.2,0c0.7,0,1.4,0,2.1-0.1c0.7,0.1,1.5,0,2.2-0.3
			c0-1,0.1-1.9,0.1-2.9s0-2,0-3s0-2,0-3s0-2,0-3s0-2,0-3s0-2,0-3s0-2,0-3s0-2,0-3c0.1-0.9,0-1.9-0.2-2.8c0.5-0.9,0.2-1.9,0.2-2.9
			s0-2,0-3s0-2,0-3s0.1-2,0.1-3s0-2.1,0-3.2s0-2,0-3s0-2,0-2.9s0-2,0-3s0-2,0-2.9s0-2,0-3s0-2,0.1-3s0-2,0-3s-0.1-2-0.1-3s0-2,0-3
			s0-2,0-3s0-2-0.1-3S614.1,353,614.2,352L614.2,352z"/>
	</defs>
	<clipPath id="SVGID_00000123428040653229365020000007133047058780796350_">
		<use xlink:href="#SVGID_1_"  style="overflow:visible;"/>
	</clipPath>
	<g style="clip-path:url(#SVGID_00000123428040653229365020000007133047058780796350_);">
		<g>
			<defs>
				<rect id="SVGID_00000007396248389081025930000007685723000187281340_" x="0" y="0.1" width="672.3" height="433.9"/>
			</defs>
			<clipPath id="SVGID_00000105417524344626191600000010953390435603500438_">
				<use xlink:href="#SVGID_00000007396248389081025930000007685723000187281340_"  style="overflow:visible;"/>
			</clipPath>
		</g>
	</g>
</g>
<path d="M659.7,313.2c-0.1,0-0.2,0.1-0.3,0.1c-0.4-0.1-0.8-0.3-1.3-0.5C659.1,312.7,659.1,312.7,659.7,313.2z"/>
<path class="st1" d="M353.3,101.7H353c0-0.1,0-0.1,0-0.1s0.2,0,0.3,0L353.3,101.7z"/>
<path class="st1" d="M369.6,91l0.1,0.1l-0.3,0.2l-0.1-0.1L369.6,91z"/>
<path class="st1" d="M353,300.3l0.3-0.1c0,0,0,0.1,0.1,0.1c-0.1,0-0.2,0.1-0.3,0.1C353,300.4,353,300.3,353,300.3z"/>
<path class="st1" d="M369.6,289.7l0.1,0.1l-0.3,0.2l-0.1-0.1L369.6,289.7z"/>
<polygon class="st1" points="302.7,235.2 302.5,235.1 302.6,235.1 "/>
<path class="st1" d="M270.1,190.6c0,0,0-0.1,0.1-0.1c0.1,0,0.1,0,0.2,0c0,0,0,0.1,0,0.1C270.2,190.6,270.1,190.6,270.1,190.6z"/>
<path class="st1" d="M369.4,190.5h0.2v0.2c-0.1,0-0.1,0-0.2,0C369.4,190.7,369.4,190.6,369.4,190.5z"/>
<path class="st1" d="M254,201.1c-0.1,0-0.1,0.1-0.2,0.1s-0.1-0.1-0.1-0.1L254,201.1z"/>
<path class="st1" d="M353.2,201c0,0,0,0.1,0,0.1c-0.1,0-0.1,0-0.2,0v-0.2L353.2,201z"/>
<polygon class="st1" points="401.9,235.2 401.8,235.1 401.9,235.1 "/>
<path class="st1" d="M270.4,289.7v0.1l-0.2-0.1L270.4,289.7z"/>
<path class="st1" d="M253.9,300.3c0,0,0-0.1,0.1-0.1c0.1,0,0.1,0,0.1,0.1c0,0,0,0.1,0,0.1L253.9,300.3z"/>
<path class="st1" d="M452.5,300.3l-0.1-0.1c0,0,0.1-0.1,0.1-0.1s0.1,0.1,0.1,0.1L452.5,300.3z"/>
<path class="st1" d="M469,91.1v0.1c0,0-0.1,0-0.1,0s0-0.1,0-0.1L469,91.1z"/>
<path class="st1" d="M452.5,101.7l-0.1-0.1c0,0,0.1-0.1,0.2-0.1c0,0,0.1,0.1,0.1,0.1L452.5,101.7z"/>
<polygon class="st1" points="401.9,36.5 401.8,36.4 401.9,36.4 "/>
<path class="st1" d="M270.4,389.3c-0.1,0-0.1,0.1-0.2,0.1s-0.1-0.1-0.1-0.1L270.4,389.3z"/>
<path class="st1" d="M369.6,389.2l-0.1,0.1l-0.1-0.2C369.4,389.2,369.5,389.2,369.6,389.2C369.6,389.2,369.6,389.2,369.6,389.2z"/>
<path class="st1" d="M568,389.1l0.2,0.1l-0.2,0.1c0,0-0.1-0.1-0.1-0.1S568,389.2,568,389.1z"/>
<path class="st1" d="M667.1,389.3c0,0,0-0.1,0.1-0.1c0.1,0,0.1,0,0.2,0v0.1C667.3,389.3,667.2,389.3,667.1,389.3z"/>
<path class="st1" d="M253.7,399.8c0,0,0-0.1,0-0.1c0.1,0,0.1,0,0.2,0c0,0,0,0.1,0,0.1S253.8,399.8,253.7,399.8z"/>
<path class="st1" d="M551.6,399.7l0.2,0v0.2c-0.1,0-0.1,0-0.2,0C551.6,399.8,551.6,399.7,551.6,399.7z"/>
<path class="st1" d="M651,399.6l0,0.2l-0.2-0.1L651,399.6z"/>
</svg>
