<svg xmlns="http://www.w3.org/2000/svg" xmlns:xlink="http://www.w3.org/1999/xlink" viewBox="0 0 217.58 217.64"><defs><style>.cls-2,.cls-3{stroke:#000;stroke-miterlimit:10}.cls-2{fill:#ffe766}.cls-3{fill:#ff6}</style><symbol id="portfolio_icon" data-name="portfolio icon" viewBox="0 0 217.58 217.64"><path d="M109.31 216.82c5.16-6.56 13.57-19.44 13-36-.51-14.46-7.85-31.19-14.16-31s-11.8 17.31-11.81 31c-.03 16.31 7.66 28.99 12.97 36zm-.99-216c-5.17 6.57-13.56 19.45-13 36 .52 14.46 7.87 31.18 14.18 31s11.78-17.31 11.79-31c.04-16.31-7.7-28.99-12.97-36zm108.44 109.62c-6.39-5.38-19-14.21-35.55-14.17-14.47 0-31.43 6.81-31.45 13.13s16.9 12.36 30.59 12.82c16.29.56 29.23-6.75 36.41-11.78zM.82 110.32c6.57 5.17 19.45 13.56 36 13 14.46-.51 31.18-7.87 31-14.18s-17.31-11.78-31-11.79c-16.31-.04-28.99 7.7-36 12.97z" class="cls-2"/><path d="M150.72 9.66c-7.36 4-20.2 12.42-26.27 27.83-5.3 13.47-5.24 31.74.63 34.08s17.71-11.16 23.19-23.72c6.51-14.94 4.48-29.66 2.45-38.19z" class="cls-3"/><path d="M183.3 32.14c-8.26 1.28-23.18 5-34 17.49-9.53 10.93-15.56 28.17-10.81 32.37s20.42-4.63 29.77-14.64c11.12-11.94 14.11-26.5 15.04-35.22zM33.35 187c8.26-1.26 23.19-4.92 34.09-17.4C77 158.7 83 141.47 78.29 137.3s-20.44 4.57-29.81 14.56C37.32 163.75 34.3 178.29 33.35 187z" class="cls-2"/><path d="M67.61 209.77c7.27-4.12 19.91-12.86 25.64-28.41 5-13.58 4.53-31.84-1.38-34.06s-17.47 11.56-22.66 24.23c-6.21 15.09-3.82 29.76-1.6 38.24zm140.94-142c-8.05-2.23-23.17-5-38.22 2-13.13 6.07-25.71 19.32-23.09 25.06s20.52 4.17 33.15-1.12c15.04-6.33 23.74-18.38 28.16-25.94zM8.88 154c8.16 1.79 23.41 3.75 38.06-4 12.8-6.76 24.66-20.65 21.74-26.25s-20.68-3.07-33.05 2.88C21 133.72 12.9 146.21 8.88 154zm140.65 53.75c2.41-8 5.52-23.06-1.07-38.26-5.76-13.28-18.71-26.16-24.51-23.68s-4.66 20.42.34 33.17c5.94 15.18 17.78 24.17 25.24 28.77z" class="cls-3"/><path d="M186 186.07c-1-8.3-4.1-23.35-16.2-34.67-10.57-9.89-27.57-16.56-31.91-12s3.85 20.59 13.51 30.3c11.44 11.58 25.87 15.12 34.6 16.37z" class="cls-2"/><path d="M206.26 153.38c-3.48-7.59-11.11-20.94-26.11-28-13.11-6.14-31.34-7.23-34.05-1.53s10 18.39 22.2 24.65c14.5 7.5 29.32 6.37 37.96 4.88z" class="cls-3"/><path d="M33.62 32.69C34.27 41 36.82 56.18 48.48 68 58.66 78.24 75.4 85.55 79.91 81.13s-3.06-20.71-12.34-30.79C56.53 38.35 42.24 34.27 33.62 32.69z" class="cls-2"/><path d="M67.37 10.48c-2.22 8.05-5 23.18 2 38.22 6.04 13.14 19.29 25.71 25.03 23.1s4.18-20.53-1.12-33.16C87 23.61 74.94 14.9 67.37 10.48zM7.6 68c4 7.34 12.5 20.15 27.94 26.15 13.46 5.2 31.76 5.06 34.08-.81S58.38 75.67 45.8 70.25C30.83 63.79 16.12 65.88 7.6 68z" class="cls-3"/><path fill="#8c6239" d="M107.32 156.82c-26.19 0-47.5-21.08-47.5-47s21.31-47 47.5-47h.51a35.82 35.82 0 0 1 5.16.33c16.87 2.39 41.83 18.88 41.83 46.67a47.65 47.65 0 0 1-47.5 47z"/><path d="M107.83 63.32a34.87 34.87 0 0 1 5.09.33c9.52 1.35 19.79 6.66 27.49 14.21 6.34 6.23 13.91 16.84 13.91 32a47.16 47.16 0 0 1-47 46.5c-25.92 0-47-20.86-47-46.5s21.08-46.5 47-46.5h.51m0-1h-.51c-26.51 0-48 21.27-48 47.5s21.49 47.5 48 47.5c26.76 0 48-22.14 48-47.5 0-26.85-23.82-44.55-42.26-47.16a35.49 35.49 0 0 0-5.23-.34z"/><text fill="#fff" font-family="Apple-Chancery,Apple Chancery" font-size="85" transform="translate(67.16 137.32)">K</text></symbol></defs><g id="レイヤー_2" data-name="レイヤー 2"><use id="レイヤー_1-2" width="217.58" height="217.64" data-name="レイヤー 1" xlink:href="#portfolio_icon"/></g></svg>