<svg id="レイヤー_1" data-name="レイヤー 1" xmlns="http://www.w3.org/2000/svg" xmlns:xlink="http://www.w3.org/1999/xlink" viewBox="0 0 59.92 62.15"><defs><style>.cls-1{fill:none;}.cls-2,.cls-6{fill:#fff;}.cls-2,.cls-3,.cls-4{stroke:#000;stroke-miterlimit:10;}.cls-3{fill:#ffe766;}.cls-4{fill:#ff6;}.cls-5{fill:#8c6239;}.cls-6{isolation:isolate;font-size:85px;font-family:Apple-Chancery, Apple Chancery;}.cls-7{clip-path:url(#clip-path);}.cls-8{clip-path:url(#clip-path-3);}.cls-9{clip-path:url(#clip-path-4);}</style><clipPath id="clip-path" transform="translate(-51.67 101.74)"><rect class="cls-1" x="52.25" y="-101.11" width="58.8" height="60.9"/></clipPath><clipPath id="clip-path-3" transform="translate(-51.67 101.74)"><rect class="cls-1" x="52.25" y="-101.11" width="58.7" height="60.9"/></clipPath><clipPath id="clip-path-4" transform="translate(-51.67 101.74)"><rect class="cls-1" x="52.25" y="-101.13" width="58.75" height="60.93"/></clipPath><symbol id="portfolio_icon" data-name="portfolio icon" viewBox="0 0 217.63 217.64"><path class="cls-2" d="M142.82,193.82"/><path class="cls-2" d="M158.72,213.32"/><path class="cls-2" d="M110.82,203.82"/><path class="cls-3" d="M109.32.82c5.2,6.6,13.6,19.4,13,36-.5,14.5-7.8,31.2-14.1,31s-11.8-17.3-11.8-31C96.32,20.52,104,7.82,109.32.82Z"/><path class="cls-3" d="M108.32,216.82c-5.2-6.6-13.6-19.5-13-36,.5-14.5,7.9-31.2,14.2-31s11.8,17.3,11.8,31C121.32,197.12,113.62,209.82,108.32,216.82Z"/><path class="cls-3" d="M216.82,107.22c-6.4,5.4-19,14.2-35.6,14.2-14.4-.1-31.4-6.9-31.4-13.2s16.9-12.4,30.6-12.8C196.72,94.82,209.62,102.12,216.82,107.22Z"/><path class="cls-3" d="M.82,107.32c6.6-5.2,19.5-13.6,36-13,14.5.5,31.2,7.9,31,14.2s-17.3,11.8-31,11.8C20.52,120.32,7.82,112.62.82,107.32Z"/><path class="cls-4" d="M150.72,208c-7.4-4-20.2-12.4-26.3-27.8-5.3-13.5-5.2-31.7.6-34.1,6-2.4,17.8,11.1,23.3,23.7C154.82,184.72,152.82,199.42,150.72,208Z"/><path class="cls-3" d="M183.32,185.52c-8.3-1.3-23.2-5-34-17.5-9.5-10.9-15.5-28.2-10.8-32.4s20.4,4.6,29.8,14.6C179.42,162.22,182.42,176.82,183.32,185.52Z"/><path class="cls-3" d="M33.42,30.62c8.3,1.3,23.2,4.9,34.1,17.4,9.6,10.9,15.6,28.2,10.9,32.3s-20.5-4.6-29.9-14.5C37.32,53.92,34.32,39.32,33.42,30.62Z"/><path class="cls-4" d="M67.62,7.82c7.3,4.1,19.9,12.9,25.6,28.4,5,13.6,4.5,31.8-1.4,34.1s-17.4-11.5-22.6-24.2C63,31,65.42,16.32,67.62,7.82Z"/><path class="cls-4" d="M208.62,149.82c-8.1,2.2-23.2,5-38.2-2-13.2-6-25.8-19.3-23.1-25s20.5-4.2,33.1,1.1C195.42,130.22,204.12,142.32,208.62,149.82Z"/><path class="cls-4" d="M8.92,63.62c8.2-1.8,23.4-3.8,38.1,4,12.8,6.8,24.7,20.6,21.7,26.2s-20.7,3.1-33-2.9C21,83.92,12.92,71.42,8.92,63.62Z"/><path class="cls-4" d="M149.52,9.92c2.4,8,5.5,23.1-1.1,38.3-5.7,13.2-18.6,26.1-24.4,23.6s-4.7-20.4.3-33.2C130.22,23.52,142.12,14.52,149.52,9.92Z"/><path class="cls-3" d="M186,31.52c-1,8.3-4.1,23.4-16.2,34.7-10.6,9.9-27.6,16.6-31.9,12s3.9-20.6,13.5-30.3C162.92,36.32,177.32,32.82,186,31.52Z"/><path class="cls-4" d="M206.32,64.22c-3.5,7.6-11.1,21-26.1,28-13.2,6.2-31.4,7.3-34.1,1.6s10-18.4,22.2-24.6C182.82,61.62,197.62,62.72,206.32,64.22Z"/><path class="cls-3" d="M33.62,185c.7-8.4,3.2-23.5,14.9-35.4,10.2-10.2,26.9-17.5,31.4-13.1s-3.1,20.7-12.3,30.8C56.52,179.32,42.32,183.32,33.62,185Z"/><path class="cls-4" d="M67.42,207.12c-2.2-8-5-23.2,2-38.2,6-13.1,19.3-25.7,25-23.1s4.2,20.5-1.1,33.2C87,194,75,202.72,67.42,207.12Z"/><path class="cls-4" d="M7.62,149.62c4-7.3,12.5-20.2,27.9-26.2,13.5-5.2,31.8-5.1,34.1.8s-11.2,17.8-23.8,23.2C30.82,153.82,16.12,151.72,7.62,149.62Z"/><path class="cls-5" d="M107.32,60.82c-26.2,0-47.5,21.1-47.5,47s21.3,47,47.5,47h.5a46.66,46.66,0,0,0,5.2-.3c16.9-2.4,41.8-18.9,41.8-46.7A47.63,47.63,0,0,0,107.32,60.82Z"/><path d="M107.82,154.32a43.61,43.61,0,0,0,5.1-.3c9.5-1.3,19.8-6.7,27.5-14.2,6.4-6.3,13.9-16.9,13.9-32a47.23,47.23,0,0,0-47-46.5c-25.9,0-47,20.9-47,46.5s21.1,46.5,47,46.5h.5m0,1h-.5c-26.5,0-48-21.3-48-47.5s21.5-47.5,48-47.5c26.8,0,48,22.1,48,47.5,0,26.8-23.8,44.6-42.3,47.2A44.05,44.05,0,0,1,107.82,155.32Z"/><text class="cls-6" transform="matrix(1, 0, 0, -1, 67.19, 80.32)">K</text></symbol></defs><g class="cls-7"><g class="cls-7"><g class="cls-8"><g class="cls-9"><use width="217.63" height="217.64" transform="matrix(0.27, 0, 0, -0.28, 0.58, 61.55)" xlink:href="#portfolio_icon"/></g></g></g></g></svg>